<?xml version="1.0" encoding="utf-8"?>
<!-- Generator: Adobe Illustrator 16.0.0, SVG Export Plug-In . SVG Version: 6.00 Build 0)  -->
<!DOCTYPE svg PUBLIC "-//W3C//DTD SVG 1.0//EN" "http://www.w3.org/TR/2001/REC-SVG-20010904/DTD/svg10.dtd">
<svg version="1.0" id="Layer_1" xmlns="http://www.w3.org/2000/svg" xmlns:xlink="http://www.w3.org/1999/xlink" x="0px" y="0px"
	 width="64px" height="64px" viewBox="0 0 64 64" enable-background="new 0 0 64 64" xml:space="preserve">
<path fill="#E6E7E8" stroke="#000000" stroke-miterlimit="10" d="M30,27c0,1.657-1.343,3-3,3H7c-1.657,0-3-1.343-3-3V7
	c0-1.657,1.343-3,3-3h20c1.657,0,3,1.343,3,3V27z"/>
<path fill="#E6E7E8" stroke="#000000" stroke-miterlimit="10" d="M60,27c0,1.656-1.344,3-3,3H37c-1.656,0-3-1.344-3-3V7
	c0-1.657,1.344-3,3-3h20c1.656,0,3,1.343,3,3V27z"/>
<path fill="#E6E7E8" stroke="#000000" stroke-miterlimit="10" d="M30,57c0,1.656-1.344,3-3,3H7c-1.657,0-3-1.344-3-3V37
	c0-1.656,1.343-3,3-3h20c1.656,0,3,1.344,3,3V57z"/>
<path fill="#E6E7E8" stroke="#000000" stroke-miterlimit="10" d="M60,57c0,1.656-1.344,3-3,3H37c-1.656,0-3-1.344-3-3V37
	c0-1.656,1.344-3,3-3h20c1.656,0,3,1.344,3,3V57z"/>
<g>
	<path d="M15.901,23.833L11.5,10.351h1.88l2.101,6.642c0.58,1.82,1.08,3.46,1.44,5.041h0.04c0.38-1.561,0.94-3.261,1.541-5.021
		l2.28-6.662h1.86l-4.821,13.483H15.901z"/>
</g>
<g>
	<path d="M42.442,23.833V10.351h1.9l4.321,6.821c1,1.581,1.779,3.001,2.42,4.381l0.04-0.02c-0.16-1.801-0.2-3.441-0.2-5.542v-5.641
		h1.641v13.483h-1.76l-4.281-6.841c-0.94-1.5-1.841-3.041-2.521-4.501l-0.06,0.02c0.101,1.7,0.14,3.32,0.14,5.561v5.761H42.442z"/>
</g>
<g>
	<path d="M15.151,54.334L10.75,40.851h1.88l2.101,6.642c0.58,1.82,1.08,3.461,1.44,5.041h0.04c0.38-1.561,0.94-3.261,1.541-5.021
		l2.28-6.661h1.86l-4.821,13.483H15.151z"/>
</g>
<g>
	<path d="M51.844,47.58c-0.1-1.881-0.22-4.141-0.199-5.821h-0.061c-0.46,1.581-1.02,3.261-1.7,5.121l-2.38,6.542h-1.32L44.002,47
		c-0.64-1.9-1.18-3.641-1.56-5.241h-0.04c-0.04,1.681-0.141,3.94-0.26,5.962l-0.36,5.781h-1.661l0.941-13.483h2.22l2.301,6.521
		c0.56,1.66,1.021,3.141,1.36,4.541h0.06c0.341-1.36,0.82-2.841,1.421-4.541l2.4-6.521h2.221l0.84,13.483h-1.701L51.844,47.58z"/>
</g>
</svg>
